<svg width="48" height="48" viewBox="0 0 48 48" fill="none" xmlns="http://www.w3.org/2000/svg">
<g clip-path="url(#clip0_7_75)">
<path fill-rule="evenodd" clip-rule="evenodd" d="M47.5048 23.8034C47.5048 36.7393 37.0181 47.226 24.0822 47.226C11.1462 47.226 0.659576 36.7393 0.659576 23.8034C0.659576 10.8674 11.1462 0.380737 24.0822 0.380737C37.0181 0.380737 47.5048 10.8674 47.5048 23.8034ZM24.9216 17.6723C22.6434 18.6199 18.0902 20.5812 11.262 23.5561C10.1532 23.997 9.57238 24.4284 9.51951 24.8502C9.43015 25.563 10.3228 25.8437 11.5384 26.2259C11.7037 26.2779 11.875 26.3317 12.0507 26.3888C13.2466 26.7776 14.8553 27.2324 15.6916 27.2504C16.4502 27.2668 17.2969 26.9541 18.2317 26.3122C24.6115 22.0057 27.9047 19.8289 28.1115 19.782C28.2574 19.7489 28.4595 19.7073 28.5964 19.829C28.7334 19.9507 28.7199 20.1813 28.7054 20.2431C28.617 20.6201 25.113 23.8777 23.2997 25.5635C22.7344 26.0891 22.3334 26.4619 22.2515 26.547C22.0679 26.7377 21.8807 26.9181 21.7009 27.0915C20.5898 28.1625 19.7566 28.9657 21.747 30.2773C22.7034 30.9076 23.4688 31.4288 24.2323 31.9488C25.0662 32.5167 25.898 33.0831 26.9741 33.7885C27.2483 33.9683 27.5101 34.1549 27.7652 34.3368C28.7356 35.0286 29.6075 35.6501 30.6846 35.551C31.3105 35.4934 31.957 34.9049 32.2853 33.1497C33.0613 29.0015 34.5865 20.0137 34.939 16.31C34.9699 15.9855 34.931 15.5702 34.8998 15.3879C34.8686 15.2056 34.8034 14.9459 34.5665 14.7536C34.2858 14.5259 33.8526 14.4779 33.6588 14.4813C32.7779 14.4968 31.4263 14.9668 24.9216 17.6723Z" fill="#5686E1"/>
</g>
<defs>
<clipPath id="clip0_7_75">
<rect width="46.8452" height="46.8452" fill="white" transform="translate(0.659576 0.380737)"/>
</clipPath>
</defs>
</svg>
