<svg width="48" height="48" viewBox="0 0 48 48" fill="none" xmlns="http://www.w3.org/2000/svg">
<g clip-path="url(#clip0_7_87)">
<path fill-rule="evenodd" clip-rule="evenodd" d="M3.71422 3.67369C0.421265 6.96665 0.421265 12.2665 0.421265 22.8664V24.7403C0.421265 35.3402 0.421265 40.64 3.71422 43.933C7.00718 47.226 12.3071 47.226 22.907 47.226H24.7808C35.3807 47.226 40.6805 47.226 43.9736 43.933C47.2665 40.64 47.2665 35.3402 47.2665 24.7403V22.8664C47.2665 12.2665 47.2665 6.96665 43.9736 3.67369C40.6805 0.380737 35.3807 0.380737 24.7808 0.380737H22.907C12.3071 0.380737 7.00718 0.380737 3.71422 3.67369ZM8.32651 14.6296C8.58026 26.8093 14.6701 34.1289 25.3469 34.1289H25.9521V27.1607C29.8754 27.5511 32.8421 30.4203 34.0327 34.1289H39.5762C38.0537 28.5856 34.0521 25.5211 31.5537 24.35C34.0521 22.9056 37.5655 19.3922 38.4048 14.6296H33.3689C32.2758 18.4943 29.0361 22.0077 25.9521 22.3395V14.6296H20.9161V28.1366C17.793 27.3559 13.8503 23.5692 13.6747 14.6296H8.32651Z" fill="#5686E1"/>
</g>
<defs>
<clipPath id="clip0_7_87">
<rect width="46.8452" height="46.8452" fill="white" transform="translate(0.421265 0.380737)"/>
</clipPath>
</defs>
</svg>
